Coordinates
version=1
nRows=15
nColumns=63
inDegrees=yes

Units are S.I. units (second, meters, Newtons, ...)
If the header above contains a line with 'inDegrees', this indicates whether rotational values are in degrees (yes) or radians (no).

endheader
time	pelvis_tilt	pelvis_list	pelvis_rotation	pelvis_tx	pelvis_ty	pelvis_tz	hip_flexion_r	hip_adduction_r	hip_rotation_r	knee_angle_r	knee_angle_r_beta	ankle_angle_r	subtalar_angle_r	mtp_angle_r	hip_flexion_l	hip_adduction_l	hip_rotation_l	knee_angle_l	knee_angle_l_beta	ankle_angle_l	subtalar_angle_l	mtp_angle_l	L5_S1_Flex_Ext	L5_S1_Lat_Bending	L5_S1_axial_rotation	L4_L5_Flex_Ext	L4_L5_Lat_Bending	L4_L5_axial_rotation	L3_L4_Flex_Ext	L3_L4_Lat_Bending	L3_L4_axial_rotation	L2_L3_Flex_Ext	L2_L3_Lat_Bending	L2_L3_axial_rotation	L1_L2_Flex_Ext	L1_L2_Lat_Bending	L1_L2_axial_rotation	L1_T12_Flex_Ext	L1_T12_Lat_Bending	L1_T12_axial_rotation	Abs_r3	Abs_r2	Abs_r1	Abs_t1	Abs_t2	neck_flexion	neck_bending	neck_rotation	arm_flex_r	arm_add_r	arm_rot_r	elbow_flex_r	pro_sup_r	wrist_flex_r	wrist_dev_r	arm_flex_l	arm_add_l	arm_rot_l	elbow_flex_l	pro_sup_l	wrist_flex_l	wrist_dev_l
1.183333	-1.003869	-5.162607	81.894420	0.257856	0.959614	0.568370	5.791622	-1.817728	-2.082589	14.369883	0.250802	37.557093	8.747730	0.000000	2.073015	3.169833	-1.204681	8.814103	0.153835	33.547724	-5.398797	0.000000	0.186165	-0.148873	1.391165	0.345727	-0.198001	1.478112	0.305851	-0.361970	1.478112	0.212768	-0.361970	1.217269	0.172873	-0.303582	1.130321	0.106375	-0.230604	1.043373	1.329759	-1.684081	7.737240	0.000000	0.000000	13.872983	0.732181	-9.606045	16.770600	-5.373806	69.969523	29.511386	51.474540	12.051823	2.519200	19.841736	-6.226439	79.213965	38.254901	44.824625	-1.233063	-5.061684
1.200000	-0.923080	-5.124819	82.213007	0.257657	0.959637	0.568072	5.973553	-1.603150	-1.207352	14.792133	0.258171	37.598213	7.120663	0.000000	2.051516	3.077715	-1.153786	8.835736	0.154213	33.779955	-4.950523	0.000000	0.191453	-0.144801	1.295806	0.355547	-0.192585	1.376794	0.314538	-0.352069	1.376794	0.218811	-0.352069	1.133830	0.177783	-0.295278	1.052842	0.109396	-0.224296	0.971854	1.367529	-1.638016	7.206882	0.000000	0.000000	13.761768	0.872975	-9.547521	16.734401	-5.423506	69.584346	29.804911	52.573695	11.906635	2.398001	19.646780	-6.581028	78.163823	38.697544	46.131616	-0.613883	-4.655272
1.216667	-0.849216	-5.084908	82.576843	0.257518	0.959557	0.567705	6.156650	-1.359302	-0.134026	15.245306	0.266081	37.610420	5.159019	0.000000	2.026776	2.980795	-1.123309	8.861620	0.154664	34.057282	-4.392179	0.000000	0.198474	-0.144245	1.208706	0.368586	-0.191846	1.284250	0.326073	-0.350717	1.284250	0.226836	-0.350717	1.057618	0.184303	-0.294144	0.982074	0.113408	-0.223435	0.906530	1.417679	-1.631726	6.722462	0.000000	0.000000	13.687502	0.996323	-9.705351	16.608153	-5.456173	69.085710	30.100476	53.409906	11.598181	2.430532	19.608646	-6.923106	77.638869	39.151233	47.337926	-0.096821	-4.252311
1.233333	-0.802762	-5.034612	82.955420	0.257437	0.959354	0.567258	6.353609	-1.147591	0.808076	15.778621	0.275389	37.690789	3.337027	0.000000	1.982385	2.920190	-0.939979	8.867776	0.154772	34.323054	-4.009734	0.000000	0.206111	-0.149082	1.133922	0.382769	-0.198280	1.204792	0.338620	-0.362479	1.204792	0.235565	-0.362479	0.992181	0.191395	-0.304009	0.921311	0.117772	-0.230929	0.850441	1.472232	-1.686450	6.306531	0.000000	0.000000	13.628917	1.086561	-10.112164	16.353889	-5.472229	68.344244	30.427109	54.192538	11.159470	2.586239	19.696838	-7.263374	77.547593	39.649445	47.991562	0.398630	-3.716275
1.250000	-0.779709	-4.978853	83.368230	0.257425	0.959046	0.566738	6.534769	-0.942818	1.790810	16.321228	0.284859	37.777276	1.403976	0.000000	1.942180	2.874582	-0.759511	8.897177	0.155285	34.617340	-3.585997	0.000000	0.214859	-0.159249	1.068930	0.399015	-0.211802	1.135738	0.352992	-0.387199	1.135738	0.245563	-0.387199	0.935314	0.199518	-0.324741	0.868506	0.122771	-0.246677	0.801698	1.534718	-1.801461	5.945070	0.000000	0.000000	13.574261	1.169222	-10.767503	16.024051	-5.495990	67.598155	30.784512	54.758306	10.585255	2.738496	19.916389	-7.597096	77.892109	40.133318	48.719178	0.946437	-3.125823
1.266667	-0.791411	-4.919391	83.765261	0.257523	0.958638	0.566154	6.709833	-0.765555	2.776351	16.884217	0.294685	37.889271	-0.522810	0.000000	1.895416	2.861425	-0.540204	8.922678	0.155730	34.890293	-3.243180	0.000000	0.224874	-0.175184	1.030188	0.417613	-0.232995	1.094574	0.369445	-0.425944	1.094574	0.257008	-0.425944	0.901414	0.208818	-0.357236	0.837027	0.128493	-0.271361	0.772641	1.606252	-1.981722	5.729594	0.000000	0.000000	13.510655	1.221954	-11.707074	15.555278	-5.530234	66.638891	31.221923	55.035289	9.983865	3.060929	20.296985	-7.905307	78.813578	40.630999	48.858453	1.434345	-2.444396
1.283333	-0.840701	-4.854543	84.152301	0.257732	0.958157	0.565561	6.868883	-0.620219	3.740391	17.450711	0.304572	38.010048	-2.427340	0.000000	1.856441	2.881557	-0.289474	8.972561	0.156601	35.142447	-2.977843	0.000000	0.234371	-0.197193	1.019418	0.435250	-0.262266	1.083132	0.385048	-0.479454	1.083132	0.267863	-0.479454	0.891991	0.217637	-0.402115	0.828277	0.133920	-0.305451	0.764563	1.674088	-2.230683	5.669697	0.000000	0.000000	13.450754	1.211540	-12.974081	14.949638	-5.575064	65.488803	31.754768	54.917490	9.304173	3.511955	20.845873	-8.188286	80.317217	41.145308	48.346754	1.869773	-1.686513
1.300000	-0.922727	-4.780950	84.501078	0.258041	0.957615	0.564921	6.992715	-0.513205	4.634316	17.990899	0.314000	38.135246	-4.200318	0.000000	1.795725	2.944418	0.102160	8.999204	0.157066	35.306719	-2.978690	0.000000	0.243544	-0.222767	1.032127	0.452286	-0.296280	1.096635	0.400119	-0.541635	1.096635	0.278347	-0.541635	0.903111	0.226155	-0.454266	0.838603	0.139161	-0.345066	0.774095	1.739613	-2.519982	5.740379	0.000000	0.000000	13.400544	1.194835	-14.407962	14.178407	-5.655128	63.862736	32.406421	55.304114	8.714574	3.960932	21.345669	-8.477998	81.584921	41.649937	48.346840	2.401656	-0.738862
1.316667	-1.032629	-4.697598	84.786952	0.258469	0.957048	0.564279	7.078517	-0.441061	5.453057	18.492453	0.322754	38.259065	-5.802935	0.000000	1.717897	3.045687	0.606779	9.017070	0.157378	35.384459	-3.260768	0.000000	0.252821	-0.250154	1.074515	0.469513	-0.332705	1.141672	0.415359	-0.608226	1.141672	0.288949	-0.608226	0.940200	0.234769	-0.510115	0.873043	0.144462	-0.387489	0.805886	1.805872	-2.829798	5.976127	0.000000	0.000000	13.349455	1.145710	-15.964190	13.272076	-5.771713	61.920940	33.160672	55.823136	8.200420	4.531802	21.914962	-8.739017	83.149698	42.172178	47.917772	2.814143	0.140829
1.333333	-1.165626	-4.589978	85.012183	0.259028	0.956478	0.563656	7.115491	-0.412717	6.128145	18.961193	0.330935	38.408114	-7.136800	0.000000	1.609236	3.166808	1.032981	9.033507	0.157664	35.442380	-3.554510	0.000000	0.259786	-0.277926	1.128623	0.482448	-0.369642	1.199162	0.426802	-0.675750	1.199162	0.296909	-0.675750	0.987545	0.241237	-0.566748	0.917006	0.148442	-0.430508	0.846467	1.855623	-3.143959	6.277060	0.000000	0.000000	13.305107	1.145789	-17.422496	12.361794	-5.957414	60.058065	34.016879	56.063806	7.742325	5.080632	22.477152	-9.028338	84.822287	42.779408	47.153076	2.993017	0.828371
1.350000	-1.315283	-4.449030	85.134056	0.259751	0.955929	0.563119	7.106769	-0.420296	6.684799	19.399609	0.338587	38.587319	-8.184137	0.000000	1.459995	3.310734	1.414050	9.042617	0.157823	35.459602	-3.969057	0.000000	0.261147	-0.303724	1.198021	0.484977	-0.403953	1.272897	0.429039	-0.738474	1.272897	0.298465	-0.738474	1.048268	0.242502	-0.619353	0.973392	0.149220	-0.470468	0.898515	1.865350	-3.435783	6.663031	0.000000	0.000000	13.310118	1.098334	-18.704683	11.442442	-6.197581	58.093930	34.941155	56.505516	7.408892	5.732120	23.047683	-9.318525	86.637040	43.444230	45.708277	3.035275	1.196727
1.366667	-1.467854	-4.290846	85.177130	0.260580	0.955422	0.562643	7.046395	-0.449013	7.146430	19.748129	0.344670	38.772694	-8.964702	0.000000	1.299036	3.451700	1.664399	9.077682	0.158435	35.488283	-4.341497	0.000000	0.260093	-0.323508	1.248157	0.483019	-0.430266	1.326166	0.427307	-0.786577	1.326166	0.297260	-0.786577	1.092137	0.241522	-0.659697	1.014127	0.148617	-0.501114	0.936117	1.857818	-3.659587	6.941873	0.000000	0.000000	13.369235	1.084110	-19.467392	10.699810	-6.468996	56.589490	35.865431	56.703973	7.126018	6.398719	23.413399	-9.642463	88.044728	44.165964	44.124303	2.875776	1.376191
1.383333	-1.604308	-4.115453	85.110682	0.261554	0.954966	0.562234	6.947677	-0.471199	7.593771	20.018962	0.349397	38.975202	-9.540221	0.000000	1.115297	3.571424	1.742733	9.118469	0.159147	35.546347	-4.651563	0.000000	0.255509	-0.334659	1.282963	0.474506	-0.445097	1.363149	0.419776	-0.813690	1.363149	0.292021	-0.813690	1.122593	0.237266	-0.682437	1.042408	0.145998	-0.518387	0.962223	1.825076	-3.785731	7.135458	0.000000	0.000000	13.492512	1.067532	-19.685240	10.138350	-6.786404	55.467038	36.795484	56.864591	6.943098	7.125571	23.593010	-9.975251	89.103035	44.920663	42.352300	2.533245	1.319749
1.400000	-1.718756	-3.922386	84.917788	0.262677	0.954589	0.561871	6.818362	-0.500172	7.898414	20.219702	0.352900	39.229988	-9.699636	0.000000	0.900611	3.667718	1.679414	9.152498	0.159741	35.623393	-4.933556	0.000000	0.247634	-0.335735	1.297874	0.459881	-0.446527	1.378991	0.406838	-0.816306	1.378991	0.283021	-0.816306	1.135640	0.229953	-0.684630	1.054523	0.141498	-0.520053	0.973406	1.768826	-3.797899	7.218387	0.000000	0.000000	13.670918	1.037128	-19.289224	9.835336	-7.128325	54.995707	37.657164	56.895226	6.887503	7.710423	23.603321	-10.305485	89.945710	45.655322	40.352159	1.867283	0.743161
1.416667	-1.798422	-3.722442	84.628293	0.263883	0.954295	0.561534	6.670792	-0.526267	8.041060	20.362834	0.355398	39.530774	-9.462760	0.000000	0.671096	3.727560	1.480393	9.193748	0.160461	35.731116	-5.163112	0.000000	0.237865	-0.324634	1.281817	0.441738	-0.431763	1.361931	0.390788	-0.789314	1.361931	0.271855	-0.789314	1.121590	0.220881	-0.661993	1.041476	0.135916	-0.502857	0.961363	1.699043	-3.672320	7.129082	0.000000	0.000000	13.897605	0.975067	-18.241674	9.847931	-7.491636	55.362446	38.471557	56.273537	6.926506	8.241313	23.385238	-10.635196	90.335962	46.367471	38.805707	0.872364	-0.076797
